# xmcd
#
# Track frame offsets: 
#        150
#        15182
#        30658
#        47861
#        65010
#        77044
#        94554
#        106789
#        124469
#        140335
#        157090
#        172113
#
# Disc length: 2410 seconds
#
# Revision: 3
# Processed by: cddbd v1.5.2PL0 Copyright (c) Steve Scherf et al.
# Submitted via: ExactAudioCopy v1.0b1
#
DISCID=9a09680c
DTITLE=Keith B Brown - Got To Keep Movin'
DYEAR=1900
DGENRE=
TTITLE0=Keith B Brown - Down The Line
TTITLE1=Keith B Brown - All I Need
TTITLE2=Keith B Brown - All The Wrong Moves
TTITLE3=Keith B Brown - The Surface (Jo Jo)
TTITLE4=Keith B Brown - Satisfy My Soul
TTITLE5=Keith B Brown - Got To Keep Movin' II
TTITLE6=Keith B Brown - Them Boys From Memphis
TTITLE7=Keith B Brown - Kick It
TTITLE8=Keith B Brown - Bad Luck Child
TTITLE9=Keith B Brown - Cold Fever
TTITLE10=Keith B Brown - Got To Keep Movin' I
TTITLE11=Keith B Brown - Tell Me What You Say
EXTD=
EXTT0=
EXTT1=
EXTT2=
EXTT3=
EXTT4=
EXTT5=
EXTT6=
EXTT7=
EXTT8=
EXTT9=
EXTT10=
EXTT11=
PLAYORDER=
